#define crush4_width 32
#define crush4_height 32
static unsigned char crush4_bits[] = {
   0x00, 0x00, 0x00, 0x00, 0x00, 0x00, 0x00, 0x00, 0x00, 0x00, 0x00, 0x00,
   0x00, 0x00, 0x00, 0x00, 0x00, 0x00, 0x00, 0x00, 0x00, 0x00, 0x00, 0x00,
   0x00, 0x00, 0x00, 0x00, 0x00, 0x00, 0x00, 0x00, 0x00, 0x00, 0x00, 0x00,
   0x00, 0x00, 0x00, 0x00, 0x00, 0x00, 0x00, 0x00, 0x00, 0x00, 0x00, 0x00,
   0x00, 0x00, 0x00, 0x00, 0x00, 0x00, 0x00, 0x00, 0x00, 0x00, 0x00, 0x00,
   0x00, 0x00, 0x00, 0x00, 0x00, 0x00, 0x00, 0x00, 0x00, 0x00, 0x00, 0x00,
   0x00, 0x00, 0x00, 0x00, 0x18, 0x02, 0x0f, 0x00, 0x18, 0x06, 0x0f, 0x03,
   0x1c, 0x06, 0xee, 0x0f, 0x06, 0xe0, 0xce, 0x03, 0x32, 0xf0, 0x00, 0x00,
   0xf0, 0x78, 0x3c, 0x0e, 0xe0, 0x39, 0x1f, 0x0e, 0x00, 0x99, 0x07, 0x18,
   0x3e, 0x80, 0x01, 0x38, 0x7e, 0x0e, 0xf0, 0x73, 0x3e, 0x3e, 0xf8, 0x61,
   0x00, 0x3e, 0xfc, 0x00, 0x00, 0x00, 0x00, 0x00};
